<svg xmlns="http://www.w3.org/2000/svg" viewBox="0 0 24 24" width="24" height="24" role="img" aria-label="Kunal Mishra">
  <rect width="24" height="24" rx="5" fill="#1a1a1a"/>
  <g transform="translate(3.6 3.6) scale(0.7)" fill="none" stroke="#ffffff" stroke-width="2.4" stroke-linecap="round" stroke-linejoin="round">
    <path d="M17 3v1c-.01 3.352 -1.68 6.023 -5.008 8.014c-3.328 1.99 3.336 -2 .008 -.014c-3.328 1.99 -5 4.662 -5.008 8.014v1" />
    <path d="M17 21.014v-1c-.01 -3.352 -1.68 -6.023 -5.008 -8.014c-3.328 -1.99 3.336 2 .008 .014c-3.328 -1.991 -5 -4.662 -5.008 -8.014v-1" />
    <path d="M7 4h10" />
    <path d="M7 20h10" />
    <path d="M8 8h8" />
    <path d="M8 16h8" />
  </g>
</svg>
